# xmcd
#
# Track frame offsets:
#	150
#	30392
#	51617
#	76660
#	105873
#	132584
#	156515
#	183032
#	208324
#	229205
#	246771
#	273010
#	292771
#
# Disc length: 4248 seconds
#
# Revision: 3
# Processed by: cddbd v1.5.2PL0 Copyright (c) Steve Scherf et al.
# Submitted via: EZCDAudioConverter 8.0.2.1
#
DISCID=ab10960d
DTITLE=Various Artist - Hà Nội
DYEAR=2008
DGENRE=Pop
TTITLE0=Hợp Ca - Từ miền Bắc
TTITLE1=Khánh Hà - Giấc mơ hồi hương
TTITLE2=Bằng Kiều - Em ơi! Hà Nội phố
TTITLE3=Ngọc Hạ - Hà Nội ngày tháng cũ
TTITLE4=Quang Dũng - Hà Nội ngày trở về
TTITLE5=Quỳnh Vi - Trăng sáng vườn chè
TTITLE6=Trần Thái Hòa - Cô hàng nước
TTITLE7=Thu Phương - Hướng về Hà Nội
TTITLE8=Thế Sơn - Hà Nội mùa vắng những cơn mưa
TTITLE9=Tú Quyên, Thanh Trúc - Em đi chùa Hương
TTITLE10=Trần Thu Hà - Gửi người em gái
TTITLE11=Trần Thái Hòa - Đường về Miền Bắc
TTITLE12=Duy Trác - Đôi mắt người Sơn Tây 
EXTD=
EXTT0=
EXTT1=
EXTT2=
EXTT3=
EXTT4=
EXTT5=
EXTT6=
EXTT7=
EXTT8=
EXTT9=
EXTT10=
EXTT11=
EXTT12=
PLAYORDER=
